<svg id="레이어_1" data-name="레이어 1" xmlns="http://www.w3.org/2000/svg" viewBox="0 0 640.33 46.04"><defs><style>.cls-1{fill:#fbfbf9;}.cls-2{fill:#00a651;}</style></defs><rect class="cls-1" y="23.02" width="23.02" height="23.02"/><rect class="cls-1" x="503" y="23.02" width="23.02" height="23.02"/><rect class="cls-1" x="182.58" y="23.02" width="23.02" height="23.02"/><rect class="cls-1" x="365.95" y="23.02" width="23.02" height="23.02"/><rect class="cls-1" x="23.02" width="23.02" height="23.02"/><rect class="cls-1" x="526.02" width="23.02" height="23.02"/><rect class="cls-1" x="205.6" width="23.02" height="23.02"/><rect class="cls-1" x="388.98" width="22.23" height="23.02"/><rect class="cls-1" x="91.29" y="23.02" width="23.02" height="23.02"/><rect class="cls-1" x="594.29" y="23.02" width="23.02" height="23.02"/><rect class="cls-1" x="274.66" y="23.02" width="22.23" height="23.02"/><rect class="cls-1" x="457.24" y="23.02" width="23.02" height="23.02"/><rect class="cls-1" x="114.31" width="23.02" height="23.02"/><rect class="cls-1" x="617.31" width="23.02" height="23.02"/><rect class="cls-1" x="296.89" width="23.02" height="23.02"/><rect class="cls-1" x="480.26" width="23.02" height="23.02"/><rect class="cls-1" x="46.04" y="23.02" width="22.23" height="23.02"/><rect class="cls-1" x="549.04" y="23.02" width="22.23" height="23.02"/><rect class="cls-1" x="228.62" y="23.02" width="23.02" height="23.02"/><rect class="cls-1" x="411.2" y="23.02" width="23.02" height="23.02"/><rect class="cls-1" x="68.27" width="23.02" height="23.02"/><rect class="cls-1" x="571.27" width="23.02" height="23.02"/><rect class="cls-1" x="251.64" width="23.02" height="23.02"/><rect class="cls-1" x="434.22" width="23.02" height="23.02"/><rect class="cls-1" x="137.33" y="23.02" width="23.02" height="23.02"/><rect class="cls-1" x="319.91" y="23.02" width="23.02" height="23.02"/><rect class="cls-1" x="160.35" width="22.23" height="23.02"/><rect class="cls-1" x="342.93" width="23.02" height="23.02"/><rect class="cls-2" x="23.02" y="23.02" width="23.02" height="23.02"/><rect class="cls-2" x="526.02" y="23.02" width="23.02" height="23.02"/><rect class="cls-2" x="205.6" y="23.02" width="23.02" height="23.02"/><rect class="cls-2" x="388.98" y="23.02" width="22.23" height="23.02"/><rect class="cls-2" x="46.04" width="22.23" height="23.02"/><rect class="cls-2" x="549.04" width="22.23" height="23.02"/><rect class="cls-2" x="228.62" width="23.02" height="23.02"/><rect class="cls-2" x="411.2" width="23.02" height="23.02"/><rect class="cls-2" width="23.02" height="23.02"/><rect class="cls-2" x="503" width="23.02" height="23.02"/><rect class="cls-2" x="182.58" width="23.02" height="23.02"/><rect class="cls-2" x="365.95" width="23.02" height="23.02"/><rect class="cls-2" x="114.31" y="23.02" width="23.02" height="23.02"/><rect class="cls-2" x="617.31" y="23.02" width="23.02" height="23.02"/><rect class="cls-2" x="296.89" y="23.02" width="23.02" height="23.02"/><rect class="cls-2" x="480.26" y="23.02" width="23.02" height="23.02"/><rect class="cls-2" x="137.33" width="23.02" height="23.02"/><rect class="cls-2" x="319.91" width="23.02" height="23.02"/><rect class="cls-2" x="68.27" y="23.02" width="23.02" height="23.02"/><rect class="cls-2" x="571.27" y="23.02" width="23.02" height="23.02"/><rect class="cls-2" x="251.64" y="23.02" width="23.02" height="23.02"/><rect class="cls-2" x="434.22" y="23.02" width="23.02" height="23.02"/><rect class="cls-2" x="91.29" width="23.02" height="23.02"/><rect class="cls-2" x="594.29" width="23.02" height="23.02"/><rect class="cls-2" x="274.66" width="22.23" height="23.02"/><rect class="cls-2" x="457.24" width="23.02" height="23.02"/><rect class="cls-2" x="160.35" y="23.02" width="22.23" height="23.02"/><rect class="cls-2" x="342.93" y="23.02" width="23.02" height="23.02"/></svg>