<svg width="420" height="75" viewBox="0 0 420 75" fill="none" xmlns="http://www.w3.org/2000/svg">
<path d="M175.453 0.900024H177.937V8.64002L177.397 19.656H175.993L175.453 8.64002V0.900024ZM175.129 27V23.616H178.261V27H175.129Z" fill="white"/>
<path d="M180.774 0.900024H198.594V3.06002C196.866 4.33202 195.294 5.77202 193.878 7.38002C192.486 8.98802 191.274 10.788 190.242 12.78C189.234 14.772 188.43 16.956 187.83 19.332C187.254 21.684 186.918 24.24 186.822 27H184.338C184.506 24.048 184.914 21.36 185.562 18.936C186.21 16.488 187.038 14.292 188.046 12.348C189.054 10.38 190.218 8.62802 191.538 7.09202C192.858 5.55602 194.298 4.21202 195.858 3.06002H180.774V0.900024Z" fill="white"/>
<path d="M200.074 0.900024H217.894V3.06002C216.166 4.33202 214.594 5.77202 213.178 7.38002C211.786 8.98802 210.574 10.788 209.542 12.78C208.534 14.772 207.73 16.956 207.13 19.332C206.554 21.684 206.218 24.24 206.122 27H203.638C203.806 24.048 204.214 21.36 204.862 18.936C205.51 16.488 206.338 14.292 207.346 12.348C208.354 10.38 209.518 8.62802 210.838 7.09202C212.158 5.55602 213.598 4.21202 215.158 3.06002H200.074V0.900024Z" fill="white"/>
<path d="M219.375 0.900024H237.195V3.06002C235.467 4.33202 233.895 5.77202 232.479 7.38002C231.087 8.98802 229.875 10.788 228.843 12.78C227.835 14.772 227.031 16.956 226.431 19.332C225.855 21.684 225.519 24.24 225.423 27H222.939C223.107 24.048 223.515 21.36 224.163 18.936C224.811 16.488 225.639 14.292 226.647 12.348C227.655 10.38 228.819 8.62802 230.139 7.09202C231.459 5.55602 232.899 4.21202 234.459 3.06002H219.375V0.900024Z" fill="white"/>
<path d="M240.07 0.900024H242.554V8.64002L242.014 19.656H240.61L240.07 8.64002V0.900024ZM239.746 27V23.616H242.878V27H239.746Z" fill="white"/>
<path d="M11.9694 74L3.11342 50.204V74H0.701416V47.9H4.58942L13.2294 71.264L21.8334 47.9H25.6854V74H23.2734V50.204L14.4174 74H11.9694Z" fill="white"/>
<path d="M32.785 60.932C32.785 62.732 33.025 64.328 33.505 65.72C33.985 67.112 34.645 68.288 35.485 69.248C36.325 70.184 37.309 70.904 38.437 71.408C39.589 71.912 40.837 72.164 42.181 72.164C43.525 72.164 44.761 71.912 45.889 71.408C47.041 70.904 48.037 70.184 48.877 69.248C49.717 68.288 50.377 67.112 50.857 65.72C51.337 64.328 51.577 62.732 51.577 60.932C51.577 59.132 51.337 57.548 50.857 56.18C50.377 54.788 49.717 53.612 48.877 52.652C48.037 51.692 47.041 50.972 45.889 50.492C44.761 49.988 43.525 49.736 42.181 49.736C40.837 49.736 39.589 49.988 38.437 50.492C37.309 50.972 36.325 51.692 35.485 52.652C34.645 53.612 33.985 54.788 33.505 56.18C33.025 57.548 32.785 59.132 32.785 60.932ZM54.133 60.932C54.133 62.924 53.857 64.748 53.305 66.404C52.753 68.06 51.961 69.488 50.929 70.688C49.897 71.888 48.637 72.824 47.149 73.496C45.685 74.144 44.029 74.468 42.181 74.468C40.333 74.468 38.665 74.144 37.177 73.496C35.713 72.824 34.465 71.888 33.433 70.688C32.401 69.488 31.609 68.06 31.057 66.404C30.505 64.748 30.229 62.924 30.229 60.932C30.229 58.94 30.505 57.116 31.057 55.46C31.609 53.804 32.401 52.388 33.433 51.212C34.465 50.012 35.713 49.088 37.177 48.44C38.665 47.768 40.333 47.432 42.181 47.432C44.029 47.432 45.685 47.768 47.149 48.44C48.637 49.088 49.897 50.012 50.929 51.212C51.961 52.388 52.753 53.804 53.305 55.46C53.857 57.116 54.133 58.94 54.133 60.932Z" fill="white"/>
<path d="M57.5783 47.9L65.7863 71.012L73.8503 47.9H76.4423L67.0823 74H64.3103L54.9143 47.9H57.5783Z" fill="white"/>
<path d="M79.7678 47.9H96.5078V50.132H82.1798V59.348H95.6438V61.616H82.1798V71.768H96.5078V74H79.7678V47.9Z" fill="white"/>
<path d="M115.093 50.132H106.309V47.9H126.289V50.132H117.505V74H115.093V50.132Z" fill="white"/>
<path d="M129.183 60.932C129.183 62.732 129.423 64.328 129.903 65.72C130.383 67.112 131.043 68.288 131.883 69.248C132.723 70.184 133.707 70.904 134.835 71.408C135.987 71.912 137.235 72.164 138.579 72.164C139.923 72.164 141.159 71.912 142.287 71.408C143.439 70.904 144.435 70.184 145.275 69.248C146.115 68.288 146.775 67.112 147.255 65.72C147.735 64.328 147.975 62.732 147.975 60.932C147.975 59.132 147.735 57.548 147.255 56.18C146.775 54.788 146.115 53.612 145.275 52.652C144.435 51.692 143.439 50.972 142.287 50.492C141.159 49.988 139.923 49.736 138.579 49.736C137.235 49.736 135.987 49.988 134.835 50.492C133.707 50.972 132.723 51.692 131.883 52.652C131.043 53.612 130.383 54.788 129.903 56.18C129.423 57.548 129.183 59.132 129.183 60.932ZM150.531 60.932C150.531 62.924 150.255 64.748 149.703 66.404C149.151 68.06 148.359 69.488 147.327 70.688C146.295 71.888 145.035 72.824 143.547 73.496C142.083 74.144 140.427 74.468 138.579 74.468C136.731 74.468 135.063 74.144 133.575 73.496C132.111 72.824 130.863 71.888 129.831 70.688C128.799 69.488 128.007 68.06 127.455 66.404C126.903 64.748 126.627 62.924 126.627 60.932C126.627 58.94 126.903 57.116 127.455 55.46C128.007 53.804 128.799 52.388 129.831 51.212C130.863 50.012 132.111 49.088 133.575 48.44C135.063 47.768 136.731 47.432 138.579 47.432C140.427 47.432 142.083 47.768 143.547 48.44C145.035 49.088 146.295 50.012 147.327 51.212C148.359 52.388 149.151 53.804 149.703 55.46C150.255 57.116 150.531 58.94 150.531 60.932Z" fill="white"/>
<path d="M169.303 50.132H160.519V47.9H180.499V50.132H171.715V74H169.303V50.132Z" fill="white"/>
<path d="M203.78 47.9V74H201.368V61.616H185.996V74H183.584V47.9H185.996V59.348H201.368V47.9H203.78Z" fill="white"/>
<path d="M209.987 47.9H226.727V50.132H212.399V59.348H225.863V61.616H212.399V71.768H226.727V74H209.987V47.9Z" fill="white"/>
<path d="M256.327 74L242.035 50.492V74H239.623V47.9H243.115L257.407 71.444V47.9H259.819V74H256.327Z" fill="white"/>
<path d="M266.026 47.9H282.766V50.132H268.438V59.348H281.902V61.616H268.438V71.768H282.766V74H266.026V47.9Z" fill="white"/>
<path d="M294.067 60.572L285.067 47.9H288.055L295.579 58.448L303.211 47.9H306.091L297.019 60.464L306.703 74H303.679L295.507 62.588L287.263 74H284.383L294.067 60.572Z" fill="white"/>
<path d="M315.835 50.132H307.051V47.9H327.031V50.132H318.247V74H315.835V50.132Z" fill="white"/>
<path d="M337.218 54.308C337.218 53.108 337.494 52.076 338.046 51.212C338.598 50.348 339.306 49.64 340.17 49.088C341.034 48.512 342.006 48.092 343.086 47.828C344.166 47.564 345.234 47.432 346.29 47.432C348.858 47.432 350.994 48.044 352.698 49.268C354.426 50.468 355.53 52.184 356.01 54.416H353.49C353.034 52.904 352.17 51.752 350.898 50.96C349.65 50.144 348.03 49.736 346.038 49.736C345.39 49.736 344.694 49.808 343.95 49.952C343.206 50.096 342.51 50.348 341.862 50.708C341.238 51.044 340.722 51.5 340.314 52.076C339.906 52.628 339.702 53.336 339.702 54.2C339.702 55.52 340.17 56.54 341.106 57.26C342.066 57.956 343.278 58.472 344.742 58.808L347.838 59.492C348.774 59.708 349.758 59.984 350.79 60.32C351.822 60.632 352.77 61.064 353.634 61.616C354.498 62.168 355.206 62.864 355.758 63.704C356.334 64.544 356.622 65.588 356.622 66.836C356.622 68.084 356.358 69.188 355.83 70.148C355.302 71.084 354.594 71.876 353.706 72.524C352.818 73.172 351.786 73.664 350.61 74C349.458 74.312 348.246 74.468 346.974 74.468C345.342 74.468 343.89 74.252 342.618 73.82C341.37 73.388 340.29 72.8 339.378 72.056C338.49 71.312 337.782 70.436 337.254 69.428C336.75 68.42 336.426 67.328 336.282 66.152H338.802C339.258 68.24 340.182 69.764 341.574 70.724C342.966 71.684 344.73 72.164 346.866 72.164C347.586 72.164 348.366 72.092 349.206 71.948C350.046 71.804 350.826 71.54 351.546 71.156C352.266 70.772 352.866 70.268 353.346 69.644C353.85 69.02 354.102 68.216 354.102 67.232C354.102 66.44 353.922 65.744 353.562 65.144C353.202 64.544 352.71 64.028 352.086 63.596C351.486 63.164 350.766 62.804 349.926 62.516C349.11 62.204 348.246 61.952 347.334 61.76L344.058 61.04C343.194 60.848 342.354 60.596 341.538 60.284C340.722 59.948 339.99 59.516 339.342 58.988C338.718 58.46 338.202 57.824 337.794 57.08C337.41 56.312 337.218 55.388 337.218 54.308Z" fill="white"/>
<path d="M365.897 50.132H357.113V47.9H377.093V50.132H368.309V74H365.897V50.132Z" fill="white"/>
<path d="M380.178 47.9H396.918V50.132H382.59V59.348H396.054V61.616H382.59V71.768H396.918V74H380.178V47.9Z" fill="white"/>
<path d="M409.084 47.9C410.644 47.9 412.072 48.008 413.368 48.224C414.688 48.44 415.816 48.836 416.752 49.412C417.712 49.988 418.456 50.78 418.984 51.788C419.512 52.772 419.776 54.044 419.776 55.604C419.776 57.188 419.512 58.472 418.984 59.456C418.456 60.44 417.712 61.208 416.752 61.76C415.816 62.312 414.688 62.696 413.368 62.912C412.072 63.104 410.644 63.2 409.084 63.2H403.684V74H401.272V47.9H409.084ZM403.684 50.096V60.968H409.408C410.488 60.968 411.496 60.92 412.432 60.824C413.392 60.704 414.22 60.464 414.916 60.104C415.636 59.744 416.2 59.216 416.608 58.52C417.04 57.8 417.256 56.828 417.256 55.604C417.256 54.38 417.04 53.408 416.608 52.688C416.2 51.968 415.636 51.416 414.916 51.032C414.22 50.648 413.392 50.396 412.432 50.276C411.496 50.156 410.488 50.096 409.408 50.096H403.684Z" fill="white"/>
</svg>
