<svg width="222" height="40" viewBox="0 0 222 40" fill="none" xmlns="http://www.w3.org/2000/svg">
<path d="M92.2947 0.225H93.6057V4.31L93.3207 10.124H92.5797L92.2947 4.31V0.225ZM92.1237 14V12.214H93.7767V14H92.1237ZM95.1028 0.225H104.508V1.365C103.596 2.03633 102.766 2.79633 102.019 3.645C101.284 4.49367 100.644 5.44367 100.1 6.495C99.5678 7.54633 99.1435 8.699 98.8268 9.953C98.5228 11.1943 98.3455 12.5433 98.2948 14H96.9838C97.0725 12.442 97.2878 11.0233 97.6298 9.744C97.9718 8.452 98.4088 7.293 98.9408 6.267C99.4728 5.22833 100.087 4.30367 100.784 3.493C101.48 2.68233 102.24 1.973 103.064 1.365H95.1028V0.225ZM105.289 0.225H114.694V1.365C113.782 2.03633 112.953 2.79633 112.205 3.645C111.471 4.49367 110.831 5.44367 110.286 6.495C109.754 7.54633 109.33 8.699 109.013 9.953C108.709 11.1943 108.532 12.5433 108.481 14H107.17C107.259 12.442 107.474 11.0233 107.816 9.744C108.158 8.452 108.595 7.293 109.127 6.267C109.659 5.22833 110.274 4.30367 110.97 3.493C111.667 2.68233 112.427 1.973 113.25 1.365H105.289V0.225ZM115.476 0.225H124.881V1.365C123.969 2.03633 123.139 2.79633 122.392 3.645C121.657 4.49367 121.018 5.44367 120.473 6.495C119.941 7.54633 119.517 8.699 119.2 9.953C118.896 11.1943 118.719 12.5433 118.668 14H117.357C117.446 12.442 117.661 11.0233 118.003 9.744C118.345 8.452 118.782 7.293 119.314 6.267C119.846 5.22833 120.46 4.30367 121.157 3.493C121.854 2.68233 122.614 1.973 123.437 1.365H115.476V0.225ZM126.398 0.225H127.709V4.31L127.424 10.124H126.683L126.398 4.31V0.225ZM126.227 14V12.214H127.88V14H126.227ZM6.01166 39L1.33766 26.441V39H0.0646641V25.225H2.11666L6.67666 37.556L11.2177 25.225H13.2507V39H11.9777V26.441L7.30366 39H6.01166ZM16.9977 32.103C16.9977 33.053 17.1243 33.8953 17.3777 34.63C17.631 35.3647 17.9793 35.9853 18.4227 36.492C18.866 36.986 19.3853 37.366 19.9807 37.632C20.5887 37.898 21.2473 38.031 21.9567 38.031C22.666 38.031 23.3183 37.898 23.9137 37.632C24.5217 37.366 25.0473 36.986 25.4907 36.492C25.934 35.9853 26.2823 35.3647 26.5357 34.63C26.789 33.8953 26.9157 33.053 26.9157 32.103C26.9157 31.153 26.789 30.317 26.5357 29.595C26.2823 28.8603 25.934 28.2397 25.4907 27.733C25.0473 27.2263 24.5217 26.8463 23.9137 26.593C23.3183 26.327 22.666 26.194 21.9567 26.194C21.2473 26.194 20.5887 26.327 19.9807 26.593C19.3853 26.8463 18.866 27.2263 18.4227 27.733C17.9793 28.2397 17.631 28.8603 17.3777 29.595C17.1243 30.317 16.9977 31.153 16.9977 32.103ZM28.2647 32.103C28.2647 33.1543 28.119 34.117 27.8277 34.991C27.5363 35.865 27.1183 36.6187 26.5737 37.252C26.029 37.8853 25.364 38.3793 24.5787 38.734C23.806 39.076 22.932 39.247 21.9567 39.247C20.9813 39.247 20.101 39.076 19.3157 38.734C18.543 38.3793 17.8843 37.8853 17.3397 37.252C16.795 36.6187 16.377 35.865 16.0857 34.991C15.7943 34.117 15.6487 33.1543 15.6487 32.103C15.6487 31.0517 15.7943 30.089 16.0857 29.215C16.377 28.341 16.795 27.5937 17.3397 26.973C17.8843 26.3397 18.543 25.852 19.3157 25.51C20.101 25.1553 20.9813 24.978 21.9567 24.978C22.932 24.978 23.806 25.1553 24.5787 25.51C25.364 25.852 26.029 26.3397 26.5737 26.973C27.1183 27.5937 27.5363 28.341 27.8277 29.215C28.119 30.089 28.2647 31.0517 28.2647 32.103ZM30.083 25.225L34.415 37.423L38.671 25.225H40.039L35.099 39H33.636L28.677 25.225H30.083ZM41.7942 25.225H50.6292V26.403H43.0672V31.267H50.1732V32.464H43.0672V37.822H50.6292V39H41.7942V25.225ZM60.4378 26.403H55.8018V25.225H66.3468V26.403H61.7108V39H60.4378V26.403ZM67.8746 32.103C67.8746 33.053 68.0013 33.8953 68.2546 34.63C68.508 35.3647 68.8563 35.9853 69.2996 36.492C69.743 36.986 70.2623 37.366 70.8576 37.632C71.4656 37.898 72.1243 38.031 72.8336 38.031C73.543 38.031 74.1953 37.898 74.7906 37.632C75.3986 37.366 75.9243 36.986 76.3676 36.492C76.811 35.9853 77.1593 35.3647 77.4126 34.63C77.666 33.8953 77.7926 33.053 77.7926 32.103C77.7926 31.153 77.666 30.317 77.4126 29.595C77.1593 28.8603 76.811 28.2397 76.3676 27.733C75.9243 27.2263 75.3986 26.8463 74.7906 26.593C74.1953 26.327 73.543 26.194 72.8336 26.194C72.1243 26.194 71.4656 26.327 70.8576 26.593C70.2623 26.8463 69.743 27.2263 69.2996 27.733C68.8563 28.2397 68.508 28.8603 68.2546 29.595C68.0013 30.317 67.8746 31.153 67.8746 32.103ZM79.1416 32.103C79.1416 33.1543 78.996 34.117 78.7046 34.991C78.4133 35.865 77.9953 36.6187 77.4506 37.252C76.906 37.8853 76.241 38.3793 75.4556 38.734C74.683 39.076 73.809 39.247 72.8336 39.247C71.8583 39.247 70.978 39.076 70.1926 38.734C69.42 38.3793 68.7613 37.8853 68.2166 37.252C67.672 36.6187 67.254 35.865 66.9626 34.991C66.6713 34.117 66.5256 33.1543 66.5256 32.103C66.5256 31.0517 66.6713 30.089 66.9626 29.215C67.254 28.341 67.672 27.5937 68.2166 26.973C68.7613 26.3397 69.42 25.852 70.1926 25.51C70.978 25.1553 71.8583 24.978 72.8336 24.978C73.809 24.978 74.683 25.1553 75.4556 25.51C76.241 25.852 76.906 26.3397 77.4506 26.973C77.9953 27.5937 78.4133 28.341 78.7046 29.215C78.996 30.089 79.1416 31.0517 79.1416 32.103ZM89.0491 26.403H84.4131V25.225H94.9581V26.403H90.3221V39H89.0491V26.403ZM107.245 25.225V39H105.972V32.464H97.8591V39H96.5861V25.225H97.8591V31.267H105.972V25.225H107.245ZM110.521 25.225H119.356V26.403H111.794V31.267H118.9V32.464H111.794V37.822H119.356V39H110.521V25.225ZM134.978 39L127.435 26.593V39H126.162V25.225H128.005L135.548 37.651V25.225H136.821V39H134.978ZM140.097 25.225H148.932V26.403H141.37V31.267H148.476V32.464H141.37V37.822H148.932V39H140.097V25.225ZM154.897 31.913L150.147 25.225H151.724L155.695 30.792L159.723 25.225H161.243L156.455 31.856L161.566 39H159.97L155.657 32.977L151.306 39H149.786L154.897 31.913ZM166.385 26.403H161.749V25.225H172.294V26.403H167.658V39H166.385V26.403ZM177.671 28.607C177.671 27.9737 177.817 27.429 178.108 26.973C178.399 26.517 178.773 26.1433 179.229 25.852C179.685 25.548 180.198 25.3263 180.768 25.187C181.338 25.0477 181.902 24.978 182.459 24.978C183.814 24.978 184.942 25.301 185.841 25.947C186.753 26.5803 187.336 27.486 187.589 28.664H186.259C186.018 27.866 185.562 27.258 184.891 26.84C184.232 26.4093 183.377 26.194 182.326 26.194C181.984 26.194 181.617 26.232 181.224 26.308C180.831 26.384 180.464 26.517 180.122 26.707C179.793 26.8843 179.52 27.125 179.305 27.429C179.09 27.7203 178.982 28.094 178.982 28.55C178.982 29.2467 179.229 29.785 179.723 30.165C180.23 30.5323 180.869 30.8047 181.642 30.982L183.276 31.343C183.77 31.457 184.289 31.6027 184.834 31.78C185.379 31.9447 185.879 32.1727 186.335 32.464C186.791 32.7553 187.165 33.1227 187.456 33.566C187.76 34.0093 187.912 34.5603 187.912 35.219C187.912 35.8777 187.773 36.4603 187.494 36.967C187.215 37.461 186.842 37.879 186.373 38.221C185.904 38.563 185.36 38.8227 184.739 39C184.131 39.1647 183.491 39.247 182.82 39.247C181.959 39.247 181.192 39.133 180.521 38.905C179.862 38.677 179.292 38.3667 178.811 37.974C178.342 37.5813 177.969 37.119 177.69 36.587C177.424 36.055 177.253 35.4787 177.177 34.858H178.507C178.748 35.96 179.235 36.7643 179.97 37.271C180.705 37.7777 181.636 38.031 182.763 38.031C183.143 38.031 183.555 37.993 183.998 37.917C184.441 37.841 184.853 37.7017 185.233 37.499C185.613 37.2963 185.93 37.0303 186.183 36.701C186.449 36.3717 186.582 35.9473 186.582 35.428C186.582 35.01 186.487 34.6427 186.297 34.326C186.107 34.0093 185.847 33.737 185.518 33.509C185.201 33.281 184.821 33.091 184.378 32.939C183.947 32.7743 183.491 32.6413 183.01 32.54L181.281 32.16C180.825 32.0587 180.382 31.9257 179.951 31.761C179.52 31.5837 179.134 31.3557 178.792 31.077C178.463 30.7983 178.19 30.4627 177.975 30.07C177.772 29.6647 177.671 29.177 177.671 28.607ZM192.807 26.403H188.171V25.225H198.716V26.403H194.08V39H192.807V26.403ZM200.344 25.225H209.179V26.403H201.617V31.267H208.723V32.464H201.617V37.822H209.179V39H200.344V25.225ZM215.6 25.225C216.423 25.225 217.177 25.282 217.861 25.396C218.557 25.51 219.153 25.719 219.647 26.023C220.153 26.327 220.546 26.745 220.825 27.277C221.103 27.7963 221.243 28.4677 221.243 29.291C221.243 30.127 221.103 30.8047 220.825 31.324C220.546 31.8433 220.153 32.2487 219.647 32.54C219.153 32.8313 218.557 33.034 217.861 33.148C217.177 33.2493 216.423 33.3 215.6 33.3H212.75V39H211.477V25.225H215.6ZM212.75 26.384V32.122H215.771C216.341 32.122 216.873 32.0967 217.367 32.046C217.873 31.9827 218.31 31.856 218.678 31.666C219.058 31.476 219.355 31.1973 219.571 30.83C219.799 30.45 219.913 29.937 219.913 29.291C219.913 28.645 219.799 28.132 219.571 27.752C219.355 27.372 219.058 27.0807 218.678 26.878C218.31 26.6753 217.873 26.5423 217.367 26.479C216.873 26.4157 216.341 26.384 215.771 26.384H212.75Z" fill="white"/>
</svg>
